<svg xmlns="http://www.w3.org/2000/svg" viewBox="0 0 1200 675" role="img" aria-labelledby="t d"><title id="t">Producteur adulte dans un verger d’anacardiers</title><desc id="d">Producteur adulte manipulant un sac de noix de cajou dans un verger.</desc><defs><linearGradient id="bg" x1="0" y1="0" x2="0" y2="1"><stop stop-color="#eaf4df"/><stop offset="1" stop-color="#8fba66"/></linearGradient><linearGradient id="shirt" x1="0" y1="0" x2="1" y2="1"><stop stop-color="#0d6a3b"/><stop offset="1" stop-color="#053b23"/></linearGradient><linearGradient id="bag" x1="0" y1="0" x2="1" y2="1"><stop stop-color="#e1c49b"/><stop offset="1" stop-color="#ae8455"/></linearGradient></defs><rect width="1200" height="675" fill="url(#bg)"/><g fill="#2d773d"><circle cx="110" cy="120" r="105"/><circle cx="245" cy="145" r="85"/><circle cx="1005" cy="115" r="112"/><circle cx="875" cy="155" r="88"/></g><g fill="#4f9a50"><circle cx="40" cy="200" r="75"/><circle cx="1120" cy="190" r="78"/><circle cx="760" cy="170" r="55"/></g><g fill="#6f4e2d"><rect x="90" y="155" width="34" height="315" rx="17"/><rect x="1028" y="145" width="38" height="325" rx="19"/></g><g transform="translate(875 175)"><path d="M0 0c24-19 55-10 60 18 5 32-17 76-48 65-27-9-21-58-12-83z" fill="#ef9438"/><path d="M28 70c18 6 20 26 3 37-17-8-19-28-3-37z" fill="#989064"/></g><g transform="translate(1005 230) scale(.8)"><path d="M0 0c24-19 55-10 60 18 5 32-17 76-48 65-27-9-21-58-12-83z" fill="#d65b35"/><path d="M28 70c18 6 20 26 3 37-17-8-19-28-3-37z" fill="#989064"/></g><g transform="translate(285 100)"><path d="M120 260c62-55 200-53 264 4l35 250H72l24-208z" fill="url(#shirt)"/><ellipse cx="245" cy="158" rx="82" ry="96" fill="#895334"/><rect x="210" y="218" width="70" height="68" rx="25" fill="#7e4a30"/><path d="M169 144c11-66 51-105 101-100 41 4 73 34 80 70-59-30-133-27-181 30z" fill="#392a22"/><path d="M165 82q85-75 166-5l-8 35q-87-30-160 12z" fill="#756149"/><path d="M309 100q75 0 99 33-60 9-112-9z" fill="#63513f"/><ellipse cx="216" cy="160" rx="7" ry="5" fill="#2b1b14"/><ellipse cx="270" cy="160" rx="7" ry="5" fill="#2b1b14"/><path d="M224 198q26 26 57-1" fill="none" stroke="#fff1e3" stroke-width="9" stroke-linecap="round"/><path d="M105 319c-56 44-66 98-30 128 30 26 63 5 93-24l70-63-48-52z" fill="#8a5234"/><path d="M372 314c62 31 92 75 72 111-17 31-53 25-84-1l-73-67 43-53z" fill="#8a5234"/></g><g transform="translate(515 375)"><path d="M65 55q175-58 355 5l35 245H8z" fill="url(#bag)"/><path d="M65 63q180 63 356 1" fill="none" stroke="#7b5a37" stroke-width="18" stroke-linecap="round"/><g fill="#9d916c" stroke="#746a50" stroke-width="3"><ellipse cx="115" cy="98" rx="28" ry="18" transform="rotate(15 115 98)"/><ellipse cx="170" cy="110" rx="28" ry="18" transform="rotate(-13 170 110)"/><ellipse cx="225" cy="100" rx="28" ry="18" transform="rotate(20 225 100)"/><ellipse cx="282" cy="108" rx="28" ry="18" transform="rotate(-10 282 108)"/><ellipse cx="337" cy="101" rx="28" ry="18" transform="rotate(12 337 101)"/><ellipse cx="145" cy="148" rx="28" ry="18" transform="rotate(-12 145 148)"/><ellipse cx="205" cy="150" rx="28" ry="18" transform="rotate(17 205 150)"/><ellipse cx="265" cy="145" rx="28" ry="18" transform="rotate(-17 265 145)"/><ellipse cx="325" cy="150" rx="28" ry="18" transform="rotate(9 325 150)"/></g></g><g fill="#225f35" opacity=".95"><ellipse cx="1135" cy="560" rx="85" ry="34" transform="rotate(-22 1135 560)"/><ellipse cx="70" cy="580" rx="88" ry="35" transform="rotate(23 70 580)"/></g></svg>